# xmcd
#
# Track frame offsets: 
#        150
#        16328
#        39906
#        52404
#        67513
#        83041
#        115445
#        134042
#        148666
#        168641
#        189854
#        207967
#
# Disc length: 2950 seconds
#
# Revision: 1
# Processed by: cddbd v1.5.2PL0 Copyright (c) Steve Scherf et al.
# Submitted via: ExactAudioCopy v0.99pb5
#
DISCID=a90b840c
DTITLE=Juliette Greco - Le temps d'une chanson
DYEAR=2006
DGENRE=Chanson
TTITLE0=Utile
TTITLE1=Né quelque part
TTITLE2=Mathilde
TTITLE3=Syracuse
TTITLE4=La folle complainte
TTITLE5=Avec le temps
TTITLE6=Un jour tu verras
TTITLE7=Les amants d'un jour
TTITLE8=Volare
TTITLE9=Les mains d'or
TTITLE10=Over The Rainbow
TTITLE11=La chanson de Prévert
EXTD=
EXTT0=
EXTT1=
EXTT2=
EXTT3=
EXTT4=
EXTT5=
EXTT6=
EXTT7=
EXTT8=
EXTT9=
EXTT10=
EXTT11=
PLAYORDER=
